<svg width="1200" height="630" viewBox="0 0 1200 630" fill="none" xmlns="http://www.w3.org/2000/svg">
  <rect width="1200" height="630" fill="#FFF7FC"/>
  <circle cx="185" cy="154" r="140" fill="url(#paint0_radial)" fill-opacity="0.85"/>
  <circle cx="1005" cy="120" r="122" fill="url(#paint1_radial)" fill-opacity="0.85"/>
  <circle cx="962" cy="536" r="184" fill="url(#paint2_radial)" fill-opacity="0.8"/>
  <rect x="78" y="78" width="1044" height="474" rx="40" fill="white" fill-opacity="0.72" stroke="#E8D7F4"/>
  <rect x="118" y="116" width="166" height="166" rx="34" fill="url(#paint3_linear)"/>
  <path d="M182.621 153.36C182.621 141.05 173.021 134.719 159.625 134.719H141.578V172.064H159.262C173.203 172.064 182.621 165.37 182.621 153.36ZM210.331 251H183.712L158.535 221.837H141.578V251H118V116.5H162.891C194.149 116.5 206.576 134.173 206.576 151.916C206.576 167.763 196.432 180.735 181.161 186.158L210.331 251Z" fill="white"/>
  <path d="M458.404 169.8H741.364V203.2H458.404V169.8Z" fill="#F2DEFC"/>
  <path d="M458.404 227.2H842.404V260.6H458.404V227.2Z" fill="#FFE4F2"/>
  <path d="M458.404 284.6H790.804V318H458.404V284.6Z" fill="#F7EFFF"/>
  <path d="M457 405.303H900.594" stroke="#C99EFA" stroke-width="14" stroke-linecap="round"/>
  <path d="M457 447.303H764.443" stroke="#E789C0" stroke-width="14" stroke-linecap="round"/>
  <text x="458" y="148" fill="#613073" font-family="Fraunces, Georgia, serif" font-size="72" font-weight="700">She Builds</text>
  <text x="458" y="382" fill="#6D567E" font-family="Manrope, Arial, sans-serif" font-size="32">Women-in-tech community at TUM University</text>
  <text x="118" y="510" fill="#6D567E" font-family="Manrope, Arial, sans-serif" font-size="28">Events. Mentorship. Stories. Sponsor-ready community energy.</text>
  <defs>
    <radialGradient id="paint0_radial" cx="0" cy="0" r="1" gradientUnits="userSpaceOnUse" gradientTransform="translate(185 154) rotate(90) scale(140)">
      <stop stop-color="#FF96D3"/>
      <stop offset="1" stop-color="#FF96D3" stop-opacity="0"/>
    </radialGradient>
    <radialGradient id="paint1_radial" cx="0" cy="0" r="1" gradientUnits="userSpaceOnUse" gradientTransform="translate(1005 120) rotate(90) scale(122)">
      <stop stop-color="#C9A6FF"/>
      <stop offset="1" stop-color="#C9A6FF" stop-opacity="0"/>
    </radialGradient>
    <radialGradient id="paint2_radial" cx="0" cy="0" r="1" gradientUnits="userSpaceOnUse" gradientTransform="translate(962 536) rotate(90) scale(184)">
      <stop stop-color="#F362AB"/>
      <stop offset="1" stop-color="#F362AB" stop-opacity="0"/>
    </radialGradient>
    <linearGradient id="paint3_linear" x1="118" y1="116" x2="284" y2="282" gradientUnits="userSpaceOnUse">
      <stop stop-color="#FF83C9"/>
      <stop offset="1" stop-color="#7C43A8"/>
    </linearGradient>
  </defs>
</svg>
